<?xml version="1.0" encoding="UTF-8" standalone="no"?>
<!DOCTYPE svg PUBLIC "-//W3C//DTD SVG 1.1//EN"
 "http://www.w3.org/Graphics/SVG/1.1/DTD/svg11.dtd">
<!-- Generated by graphviz version 2.43.0 (0)
 -->
<!-- Title: proof_dep Pages: 1 -->
<svg width="2113pt" height="1061pt"
 viewBox="0.00 0.00 2113.00 1060.50" xmlns="http://www.w3.org/2000/svg" xmlns:xlink="http://www.w3.org/1999/xlink">
<g id="graph0" class="graph" transform="scale(1 1) rotate(0) translate(4 1056.5)">
<title>proof_dep</title>
<polygon fill="white" stroke="transparent" points="-4,4 -4,-1056.5 2109,-1056.5 2109,4 -4,4"/>
<g id="clust1" class="cluster">
<title>cluster_sign_eval</title>
<polygon fill="#ffffc3" stroke="black" points="8,-11.15 8,-1041.35 2097,-1041.35 2097,-11.15 8,-11.15"/>
<text text-anchor="middle" x="49.5" y="-1026.15" font-family="Times,serif" font-size="14.00">sign_eval</text>
</g>
<!-- sign_eval_nat_compare -->
<g id="node1" class="node">
<title>sign_eval_nat_compare</title>
<g id="a_node1"><a xlink:href="sign_eval.html#nat_compare" xlink:title="nat_compare">
<ellipse fill="#7fffd4" stroke="black" cx="648" cy="-148.15" rx="70.39" ry="18"/>
<text text-anchor="middle" x="648" y="-144.45" font-family="Times,serif" font-size="14.00">nat_compare</text>
</a>
</g>
</g>
<!-- sign_eval_greedy_eval_flip_eval -->
<g id="node2" class="node">
<title>sign_eval_greedy_eval_flip_eval</title>
<g id="a_node2"><a xlink:href="sign_eval.html#greedy_eval_flip_eval" xlink:title="greedy_eval_flip_eval">
<ellipse fill="#7fffd4" stroke="black" cx="1377" cy="-549.15" rx="108.58" ry="18"/>
<text text-anchor="middle" x="1377" y="-545.45" font-family="Times,serif" font-size="14.00">greedy_eval_flip_eval</text>
</a>
</g>
</g>
<!-- sign_eval_eval_repeat_N -->
<g id="node3" class="node">
<title>sign_eval_eval_repeat_N</title>
<g id="a_node3"><a xlink:href="sign_eval.html#eval_repeat_N" xlink:title="eval_repeat_N">
<ellipse fill="#7fffd4" stroke="black" cx="1377" cy="-449.15" rx="76.89" ry="18"/>
<text text-anchor="middle" x="1377" y="-445.45" font-family="Times,serif" font-size="14.00">eval_repeat_N</text>
</a>
</g>
</g>
<!-- sign_eval_greedy_eval_flip_eval&#45;&gt;sign_eval_eval_repeat_N -->
<g id="edge2" class="edge">
<title>sign_eval_greedy_eval_flip_eval&#45;&gt;sign_eval_eval_repeat_N</title>
<path fill="none" stroke="black" d="M1377,-531.08C1377,-516.28 1377,-494.58 1377,-477.38"/>
<polygon fill="black" stroke="black" points="1380.5,-477.36 1377,-467.36 1373.5,-477.36 1380.5,-477.36"/>
</g>
<!-- sign_eval_eval_P -->
<g id="node4" class="node">
<title>sign_eval_eval_P</title>
<g id="a_node4"><a xlink:href="sign_eval.html#eval_P" xlink:title="eval_P">
<ellipse fill="#7faaff" stroke="black" cx="1250" cy="-47.15" rx="40.09" ry="18"/>
<text text-anchor="middle" x="1250" y="-43.45" font-family="Times,serif" font-size="14.00">eval_P</text>
</a>
</g>
</g>
<!-- sign_eval_greedy_eval_flip_eval&#45;&gt;sign_eval_eval_P -->
<g id="edge3" class="edge">
<title>sign_eval_greedy_eval_flip_eval&#45;&gt;sign_eval_eval_P</title>
<path fill="none" stroke="black" d="M1353.58,-531.27C1334.38,-516.34 1307.73,-492.97 1291,-467.15 1260.81,-420.56 1250,-404.67 1250,-349.15 1250,-349.15 1250,-349.15 1250,-247.15 1250,-185.84 1250,-113.89 1250,-75.53"/>
<polygon fill="black" stroke="black" points="1253.5,-75.19 1250,-65.19 1246.5,-75.19 1253.5,-75.19"/>
</g>
<!-- sign_eval_eval_N -->
<g id="node5" class="node">
<title>sign_eval_eval_N</title>
<g id="a_node5"><a xlink:href="sign_eval.html#eval_N" xlink:title="eval_N">
<ellipse fill="#7faaff" stroke="black" cx="1351" cy="-47.15" rx="42.49" ry="18"/>
<text text-anchor="middle" x="1351" y="-43.45" font-family="Times,serif" font-size="14.00">eval_N</text>
</a>
</g>
</g>
<!-- sign_eval_greedy_eval_flip_eval&#45;&gt;sign_eval_eval_N -->
<g id="edge4" class="edge">
<title>sign_eval_greedy_eval_flip_eval&#45;&gt;sign_eval_eval_N</title>
<path fill="none" stroke="black" d="M1403.88,-531.59C1425.52,-517.01 1455.31,-493.97 1474,-467.15 1505.82,-421.48 1516,-404.82 1516,-349.15 1516,-349.15 1516,-349.15 1516,-247.15 1516,-194.96 1534.81,-173.67 1506,-130.15 1492.12,-109.18 1431.57,-81.11 1390.39,-63.85"/>
<polygon fill="black" stroke="black" points="1391.47,-60.51 1380.89,-59.92 1388.79,-66.98 1391.47,-60.51"/>
</g>
<!-- sign_eval_eval_refl -->
<g id="node10" class="node">
<title>sign_eval_eval_refl</title>
<g id="a_node10"><a xlink:href="sign_eval.html#eval_refl" xlink:title="eval_refl">
<ellipse fill="#7fffd4" stroke="black" cx="1447" cy="-148.15" rx="50.09" ry="18"/>
<text text-anchor="middle" x="1447" y="-144.45" font-family="Times,serif" font-size="14.00">eval_refl</text>
</a>
</g>
</g>
<!-- sign_eval_greedy_eval_flip_eval&#45;&gt;sign_eval_eval_refl -->
<g id="edge1" class="edge">
<title>sign_eval_greedy_eval_flip_eval&#45;&gt;sign_eval_eval_refl</title>
<path fill="none" stroke="black" d="M1403.99,-531.66C1424.46,-517.43 1451.05,-494.83 1463,-467.15 1506.22,-367.06 1473.35,-232.45 1455.98,-175.92"/>
<polygon fill="black" stroke="black" points="1459.29,-174.77 1452.94,-166.29 1452.61,-176.88 1459.29,-174.77"/>
</g>
<!-- sign_eval_eval_Ncons -->
<g id="node6" class="node">
<title>sign_eval_eval_Ncons</title>
<g id="a_node6"><a xlink:href="sign_eval.html#eval_Ncons" xlink:title="eval_Ncons">
<ellipse fill="#7fffd4" stroke="black" cx="1365" cy="-348.15" rx="63.09" ry="18"/>
<text text-anchor="middle" x="1365" y="-344.45" font-family="Times,serif" font-size="14.00">eval_Ncons</text>
</a>
</g>
</g>
<!-- sign_eval_eval_repeat_N&#45;&gt;sign_eval_eval_Ncons -->
<g id="edge6" class="edge">
<title>sign_eval_eval_repeat_N&#45;&gt;sign_eval_eval_Ncons</title>
<path fill="none" stroke="black" d="M1374.91,-430.91C1373.09,-415.86 1370.41,-393.77 1368.3,-376.34"/>
<polygon fill="black" stroke="black" points="1371.74,-375.71 1367.07,-366.2 1364.8,-376.55 1371.74,-375.71"/>
</g>
<!-- sign_eval_eval_repeat_N&#45;&gt;sign_eval_eval_refl -->
<g id="edge5" class="edge">
<title>sign_eval_eval_repeat_N&#45;&gt;sign_eval_eval_refl</title>
<path fill="none" stroke="black" d="M1392.72,-431.29C1406.47,-415.6 1425.94,-390.96 1437,-366.15 1461.9,-310.29 1462.12,-291.17 1458,-230.15 1456.78,-212.09 1454.04,-191.92 1451.61,-176.22"/>
<polygon fill="black" stroke="black" points="1455.03,-175.47 1449.99,-166.15 1448.12,-176.58 1455.03,-175.47"/>
</g>
<!-- sign_eval_eval_Ncons_aux -->
<g id="node7" class="node">
<title>sign_eval_eval_Ncons_aux</title>
<g id="a_node7"><a xlink:href="sign_eval.html#eval_Ncons_aux" xlink:title="eval_Ncons_aux">
<ellipse fill="#7fffd4" stroke="black" cx="1353" cy="-248.15" rx="83.69" ry="18"/>
<text text-anchor="middle" x="1353" y="-244.45" font-family="Times,serif" font-size="14.00">eval_Ncons_aux</text>
</a>
</g>
</g>
<!-- sign_eval_eval_Ncons&#45;&gt;sign_eval_eval_Ncons_aux -->
<g id="edge7" class="edge">
<title>sign_eval_eval_Ncons&#45;&gt;sign_eval_eval_Ncons_aux</title>
<path fill="none" stroke="black" d="M1362.91,-330.08C1361.1,-315.28 1358.44,-293.58 1356.33,-276.38"/>
<polygon fill="black" stroke="black" points="1359.8,-275.86 1355.11,-266.36 1352.85,-276.71 1359.8,-275.86"/>
</g>
<!-- sign_eval_eval_Ncons_aux&#45;&gt;sign_eval_eval_P -->
<g id="edge10" class="edge">
<title>sign_eval_eval_Ncons_aux&#45;&gt;sign_eval_eval_P</title>
<path fill="none" stroke="black" d="M1344.22,-230.19C1326.12,-195.22 1284.58,-114.96 1263.22,-73.69"/>
<polygon fill="black" stroke="black" points="1266.32,-72.07 1258.61,-64.8 1260.1,-75.29 1266.32,-72.07"/>
</g>
<!-- sign_eval_eval_Ncons_aux&#45;&gt;sign_eval_eval_N -->
<g id="edge11" class="edge">
<title>sign_eval_eval_Ncons_aux&#45;&gt;sign_eval_eval_N</title>
<path fill="none" stroke="black" d="M1352.83,-229.84C1352.48,-195.21 1351.69,-117.14 1351.27,-75.51"/>
<polygon fill="black" stroke="black" points="1354.77,-75.25 1351.17,-65.28 1347.77,-75.32 1354.77,-75.25"/>
</g>
<!-- sign_eval_eval_Ncons_aux&#45;&gt;sign_eval_eval_refl -->
<g id="edge8" class="edge">
<title>sign_eval_eval_Ncons_aux&#45;&gt;sign_eval_eval_refl</title>
<path fill="none" stroke="black" d="M1369.37,-230.08C1384.52,-214.29 1407.18,-190.67 1424.11,-173.02"/>
<polygon fill="black" stroke="black" points="1427.04,-175.02 1431.44,-165.38 1421.99,-170.17 1427.04,-175.02"/>
</g>
<!-- sign_eval_eval_len -->
<g id="node15" class="node">
<title>sign_eval_eval_len</title>
<g id="a_node15"><a xlink:href="sign_eval.html#eval_len" xlink:title="eval_len">
<ellipse fill="#7fffd4" stroke="black" cx="429" cy="-148.15" rx="48.19" ry="18"/>
<text text-anchor="middle" x="429" y="-144.45" font-family="Times,serif" font-size="14.00">eval_len</text>
</a>
</g>
</g>
<!-- sign_eval_eval_Ncons_aux&#45;&gt;sign_eval_eval_len -->
<g id="edge9" class="edge">
<title>sign_eval_eval_Ncons_aux&#45;&gt;sign_eval_eval_len</title>
<path fill="none" stroke="black" d="M1287.95,-236.75C1272.27,-234.41 1255.56,-232.06 1240,-230.15 942.66,-193.63 866.83,-198.43 569,-166.15 540.85,-163.1 509.56,-159.34 483.72,-156.13"/>
<polygon fill="black" stroke="black" points="484.09,-152.65 473.73,-154.88 483.22,-159.59 484.09,-152.65"/>
</g>
<!-- sign_eval_weaker_cons2 -->
<g id="node8" class="node">
<title>sign_eval_weaker_cons2</title>
<g id="a_node8"><a xlink:href="sign_eval.html#weaker_cons2" xlink:title="weaker_cons2">
<ellipse fill="#7fffd4" stroke="black" cx="1650" cy="-549.15" rx="75.29" ry="18"/>
<text text-anchor="middle" x="1650" y="-545.45" font-family="Times,serif" font-size="14.00">weaker_cons2</text>
</a>
</g>
</g>
<!-- sign_eval_greedy_eval_complete -->
<g id="node9" class="node">
<title>sign_eval_greedy_eval_complete</title>
<g id="a_node9"><a xlink:href="sign_eval.html#greedy_eval_complete" xlink:title="greedy_eval_complete">
<ellipse fill="#7fffd4" stroke="black" cx="1924" cy="-962.15" rx="113.17" ry="18"/>
<ellipse fill="none" stroke="black" cx="1924" cy="-962.15" rx="117.18" ry="22"/>
<ellipse fill="none" stroke="black" cx="1924" cy="-962.15" rx="121.18" ry="26"/>
<text text-anchor="middle" x="1924" y="-958.45" font-family="Times,serif" font-size="14.00">greedy_eval_complete</text>
</a>
</g>
</g>
<!-- sign_eval_greedy_eval_complete_aux -->
<g id="node13" class="node">
<title>sign_eval_greedy_eval_complete_aux</title>
<g id="a_node13"><a xlink:href="sign_eval.html#greedy_eval_complete_aux" xlink:title="greedy_eval_complete_aux">
<ellipse fill="#7fffd4" stroke="black" cx="1924" cy="-850.15" rx="133.78" ry="18"/>
<text text-anchor="middle" x="1924" y="-846.45" font-family="Times,serif" font-size="14.00">greedy_eval_complete_aux</text>
</a>
</g>
</g>
<!-- sign_eval_greedy_eval_complete&#45;&gt;sign_eval_greedy_eval_complete_aux -->
<g id="edge12" class="edge">
<title>sign_eval_greedy_eval_complete&#45;&gt;sign_eval_greedy_eval_complete_aux</title>
<path fill="none" stroke="black" d="M1924,-935.92C1924,-918.79 1924,-896.16 1924,-878.59"/>
<polygon fill="black" stroke="black" points="1927.5,-878.4 1924,-868.4 1920.5,-878.4 1927.5,-878.4"/>
</g>
<!-- sign_eval_eval_refl&#45;&gt;sign_eval_eval_P -->
<g id="edge13" class="edge">
<title>sign_eval_eval_refl&#45;&gt;sign_eval_eval_P</title>
<path fill="none" stroke="black" d="M1419.19,-133.18C1383.99,-115.49 1323.34,-85.01 1285.02,-65.75"/>
<polygon fill="black" stroke="black" points="1286.29,-62.47 1275.79,-61.11 1283.15,-68.73 1286.29,-62.47"/>
</g>
<!-- sign_eval_eval_refl&#45;&gt;sign_eval_eval_N -->
<g id="edge14" class="edge">
<title>sign_eval_eval_refl&#45;&gt;sign_eval_eval_N</title>
<path fill="none" stroke="black" d="M1431.15,-130.8C1415.49,-114.66 1391.39,-89.8 1373.7,-71.56"/>
<polygon fill="black" stroke="black" points="1376.03,-68.94 1366.56,-64.2 1371.01,-73.81 1376.03,-68.94"/>
</g>
<!-- sign_eval_eval_nil -->
<g id="node30" class="node">
<title>sign_eval_eval_nil</title>
<g id="a_node30"><a xlink:href="sign_eval.html#eval_nil" xlink:title="eval_nil">
<ellipse fill="#7faaff" stroke="black" cx="1457" cy="-47.15" rx="46.29" ry="18"/>
<text text-anchor="middle" x="1457" y="-43.45" font-family="Times,serif" font-size="14.00">eval_nil</text>
</a>
</g>
</g>
<!-- sign_eval_eval_refl&#45;&gt;sign_eval_eval_nil -->
<g id="edge15" class="edge">
<title>sign_eval_eval_refl&#45;&gt;sign_eval_eval_nil</title>
<path fill="none" stroke="black" d="M1448.74,-129.91C1450.26,-114.86 1452.49,-92.77 1454.25,-75.34"/>
<polygon fill="black" stroke="black" points="1457.76,-75.5 1455.28,-65.2 1450.79,-74.8 1457.76,-75.5"/>
</g>
<!-- sign_eval_pp_forward -->
<g id="node11" class="node">
<title>sign_eval_pp_forward</title>
<g id="a_node11"><a xlink:href="sign_eval.html#pp_forward" xlink:title="pp_forward">
<ellipse fill="#7fffd4" stroke="black" cx="530" cy="-449.15" rx="63.89" ry="18"/>
<text text-anchor="middle" x="530" y="-445.45" font-family="Times,serif" font-size="14.00">pp_forward</text>
</a>
</g>
</g>
<!-- sign_eval_pp_forward_aux -->
<g id="node14" class="node">
<title>sign_eval_pp_forward_aux</title>
<g id="a_node14"><a xlink:href="sign_eval.html#pp_forward_aux" xlink:title="pp_forward_aux">
<ellipse fill="#7fffd4" stroke="black" cx="637" cy="-348.15" rx="84.49" ry="18"/>
<text text-anchor="middle" x="637" y="-344.45" font-family="Times,serif" font-size="14.00">pp_forward_aux</text>
</a>
</g>
</g>
<!-- sign_eval_pp_forward&#45;&gt;sign_eval_pp_forward_aux -->
<g id="edge16" class="edge">
<title>sign_eval_pp_forward&#45;&gt;sign_eval_pp_forward_aux</title>
<path fill="none" stroke="black" d="M547.67,-431.8C565.07,-415.71 591.82,-390.96 611.52,-372.73"/>
<polygon fill="black" stroke="black" points="613.98,-375.22 618.95,-365.86 609.23,-370.08 613.98,-375.22"/>
</g>
<!-- sign_eval_signs_bifurcate -->
<g id="node12" class="node">
<title>sign_eval_signs_bifurcate</title>
<g id="a_node12"><a xlink:href="sign_eval.html#signs_bifurcate" xlink:title="signs_bifurcate">
<ellipse fill="#7fffd4" stroke="black" cx="97" cy="-649.15" rx="81.49" ry="18"/>
<text text-anchor="middle" x="97" y="-645.45" font-family="Times,serif" font-size="14.00">signs_bifurcate</text>
</a>
</g>
</g>
<!-- sign_eval_greedy_eval_progress -->
<g id="node27" class="node">
<title>sign_eval_greedy_eval_progress</title>
<g id="a_node27"><a xlink:href="sign_eval.html#greedy_eval_progress" xlink:title="greedy_eval_progress">
<ellipse fill="#7fffd4" stroke="black" cx="1088" cy="-750.15" rx="111.58" ry="18"/>
<text text-anchor="middle" x="1088" y="-746.45" font-family="Times,serif" font-size="14.00">greedy_eval_progress</text>
</a>
</g>
</g>
<!-- sign_eval_greedy_eval_complete_aux&#45;&gt;sign_eval_greedy_eval_progress -->
<g id="edge17" class="edge">
<title>sign_eval_greedy_eval_complete_aux&#45;&gt;sign_eval_greedy_eval_progress</title>
<path fill="none" stroke="black" d="M1826.46,-837.72C1665.68,-818.87 1346.78,-781.49 1185.81,-762.62"/>
<polygon fill="black" stroke="black" points="1185.78,-759.09 1175.44,-761.4 1184.97,-766.04 1185.78,-759.09"/>
</g>
<!-- sign_eval_weaker_refl -->
<g id="node31" class="node">
<title>sign_eval_weaker_refl</title>
<g id="a_node31"><a xlink:href="sign_eval.html#weaker_refl" xlink:title="weaker_refl">
<ellipse fill="#7fffd4" stroke="black" cx="2025" cy="-549.15" rx="64.19" ry="18"/>
<text text-anchor="middle" x="2025" y="-545.45" font-family="Times,serif" font-size="14.00">weaker_refl</text>
</a>
</g>
</g>
<!-- sign_eval_greedy_eval_complete_aux&#45;&gt;sign_eval_weaker_refl -->
<g id="edge18" class="edge">
<title>sign_eval_greedy_eval_complete_aux&#45;&gt;sign_eval_weaker_refl</title>
<path fill="none" stroke="black" d="M1920.69,-832.01C1916.96,-807.64 1913.8,-762.54 1934,-732.15 1968.44,-680.33 2025.8,-720.39 2058,-667.15 2075.32,-638.52 2058.53,-600.48 2043.24,-575.67"/>
<polygon fill="black" stroke="black" points="2046.11,-573.66 2037.74,-567.17 2040.23,-577.46 2046.11,-573.66"/>
</g>
<!-- sign_eval_weaker_trans -->
<g id="node34" class="node">
<title>sign_eval_weaker_trans</title>
<g id="a_node34"><a xlink:href="sign_eval.html#weaker_trans" xlink:title="weaker_trans">
<ellipse fill="#7fffd4" stroke="black" cx="2016" cy="-750.15" rx="73.39" ry="18"/>
<text text-anchor="middle" x="2016" y="-746.45" font-family="Times,serif" font-size="14.00">weaker_trans</text>
</a>
</g>
</g>
<!-- sign_eval_greedy_eval_complete_aux&#45;&gt;sign_eval_weaker_trans -->
<g id="edge19" class="edge">
<title>sign_eval_greedy_eval_complete_aux&#45;&gt;sign_eval_weaker_trans</title>
<path fill="none" stroke="black" d="M1940.03,-832.08C1954.67,-816.48 1976.49,-793.24 1992.99,-775.66"/>
<polygon fill="black" stroke="black" points="1995.87,-777.71 2000.16,-768.03 1990.76,-772.92 1995.87,-777.71"/>
</g>
<!-- sign_eval_pp_forward_aux&#45;&gt;sign_eval_eval_P -->
<g id="edge24" class="edge">
<title>sign_eval_pp_forward_aux&#45;&gt;sign_eval_eval_P</title>
<path fill="none" stroke="black" d="M616.85,-330.6C600.44,-315.7 578.49,-292.2 569,-266.15 548.32,-209.36 528.9,-175.38 569,-130.15 610.81,-83.01 1049.05,-57.76 1199.57,-50.44"/>
<polygon fill="black" stroke="black" points="1200.08,-53.92 1209.9,-49.94 1199.75,-46.92 1200.08,-53.92"/>
</g>
<!-- sign_eval_pp_forward_aux&#45;&gt;sign_eval_eval_N -->
<g id="edge25" class="edge">
<title>sign_eval_pp_forward_aux&#45;&gt;sign_eval_eval_N</title>
<path fill="none" stroke="black" d="M652.87,-330.22C667.34,-314.35 688.87,-289.6 705,-266.15 715.38,-251.07 710.67,-241.54 725,-230.15 932.76,-64.94 1045.25,-143.07 1299,-65.15 1302.32,-64.13 1305.76,-63.06 1309.21,-61.96"/>
<polygon fill="black" stroke="black" points="1310.43,-65.24 1318.88,-58.85 1308.29,-58.58 1310.43,-65.24"/>
</g>
<!-- sign_eval_pp_forward_aux&#45;&gt;sign_eval_eval_refl -->
<g id="edge20" class="edge">
<title>sign_eval_pp_forward_aux&#45;&gt;sign_eval_eval_refl</title>
<path fill="none" stroke="black" d="M720.46,-344.98C917.31,-338.99 1397.71,-319.06 1446,-266.15 1467.88,-242.18 1462.84,-202.55 1455.95,-176.15"/>
<polygon fill="black" stroke="black" points="1459.28,-175.06 1453.17,-166.4 1452.55,-176.98 1459.28,-175.06"/>
</g>
<!-- sign_eval_pp_forward_aux&#45;&gt;sign_eval_eval_len -->
<g id="edge21" class="edge">
<title>sign_eval_pp_forward_aux&#45;&gt;sign_eval_eval_len</title>
<path fill="none" stroke="black" d="M611.99,-330.67C590,-315.47 557.87,-291.48 534,-266.15 520.64,-251.98 521.45,-245.14 509,-230.15 491.85,-209.51 470.39,-187.98 454.01,-172.31"/>
<polygon fill="black" stroke="black" points="456.09,-169.45 446.42,-165.11 451.27,-174.53 456.09,-169.45"/>
</g>
<!-- sign_eval_nat_compare2 -->
<g id="node17" class="node">
<title>sign_eval_nat_compare2</title>
<g id="a_node17"><a xlink:href="sign_eval.html#nat_compare2" xlink:title="nat_compare2">
<ellipse fill="#7fffd4" stroke="black" cx="810" cy="-248.15" rx="76.09" ry="18"/>
<text text-anchor="middle" x="810" y="-244.45" font-family="Times,serif" font-size="14.00">nat_compare2</text>
</a>
</g>
</g>
<!-- sign_eval_pp_forward_aux&#45;&gt;sign_eval_nat_compare2 -->
<g id="edge26" class="edge">
<title>sign_eval_pp_forward_aux&#45;&gt;sign_eval_nat_compare2</title>
<path fill="none" stroke="black" d="M665.57,-330.97C694.92,-314.34 740.73,-288.39 772.87,-270.18"/>
<polygon fill="black" stroke="black" points="774.99,-273.01 781.96,-265.03 771.54,-266.92 774.99,-273.01"/>
</g>
<!-- sign_eval_eval_firstn -->
<g id="node21" class="node">
<title>sign_eval_eval_firstn</title>
<g id="a_node21"><a xlink:href="sign_eval.html#eval_firstn" xlink:title="eval_firstn">
<ellipse fill="#7fffd4" stroke="black" cx="637" cy="-248.15" rx="59.29" ry="18"/>
<text text-anchor="middle" x="637" y="-244.45" font-family="Times,serif" font-size="14.00">eval_firstn</text>
</a>
</g>
</g>
<!-- sign_eval_pp_forward_aux&#45;&gt;sign_eval_eval_firstn -->
<g id="edge27" class="edge">
<title>sign_eval_pp_forward_aux&#45;&gt;sign_eval_eval_firstn</title>
<path fill="none" stroke="black" d="M637,-330.08C637,-315.28 637,-293.58 637,-276.38"/>
<polygon fill="black" stroke="black" points="640.5,-276.36 637,-266.36 633.5,-276.36 640.5,-276.36"/>
</g>
<!-- sign_eval_map_neg_neg -->
<g id="node22" class="node">
<title>sign_eval_map_neg_neg</title>
<g id="a_node22"><a xlink:href="sign_eval.html#map_neg_neg" xlink:title="map_neg_neg">
<ellipse fill="#7fffd4" stroke="black" cx="977" cy="-248.15" rx="73.39" ry="18"/>
<text text-anchor="middle" x="977" y="-244.45" font-family="Times,serif" font-size="14.00">map_neg_neg</text>
</a>
</g>
</g>
<!-- sign_eval_pp_forward_aux&#45;&gt;sign_eval_map_neg_neg -->
<g id="edge28" class="edge">
<title>sign_eval_pp_forward_aux&#45;&gt;sign_eval_map_neg_neg</title>
<path fill="none" stroke="black" d="M684.99,-333.32C747.32,-315.35 855.91,-284.06 921.65,-265.11"/>
<polygon fill="black" stroke="black" points="922.79,-268.42 931.42,-262.29 920.85,-261.7 922.79,-268.42"/>
</g>
<!-- sign_eval_length_app_tail -->
<g id="node23" class="node">
<title>sign_eval_length_app_tail</title>
<g id="a_node23"><a xlink:href="sign_eval.html#length_app_tail" xlink:title="length_app_tail">
<ellipse fill="#7fffd4" stroke="black" cx="1150" cy="-248.15" rx="81.49" ry="18"/>
<text text-anchor="middle" x="1150" y="-244.45" font-family="Times,serif" font-size="14.00">length_app_tail</text>
</a>
</g>
</g>
<!-- sign_eval_pp_forward_aux&#45;&gt;sign_eval_length_app_tail -->
<g id="edge29" class="edge">
<title>sign_eval_pp_forward_aux&#45;&gt;sign_eval_length_app_tail</title>
<path fill="none" stroke="black" d="M697.61,-335.57C793.48,-317.26 979.56,-281.71 1080.63,-262.4"/>
<polygon fill="black" stroke="black" points="1081.57,-265.79 1090.73,-260.47 1080.25,-258.91 1081.57,-265.79"/>
</g>
<!-- sign_eval_eval_hd_eq -->
<g id="node37" class="node">
<title>sign_eval_eval_hd_eq</title>
<g id="a_node37"><a xlink:href="sign_eval.html#eval_hd_eq" xlink:title="eval_hd_eq">
<ellipse fill="#7fffd4" stroke="black" cx="232" cy="-248.15" rx="61.99" ry="18"/>
<text text-anchor="middle" x="232" y="-244.45" font-family="Times,serif" font-size="14.00">eval_hd_eq</text>
</a>
</g>
</g>
<!-- sign_eval_pp_forward_aux&#45;&gt;sign_eval_eval_hd_eq -->
<g id="edge22" class="edge">
<title>sign_eval_pp_forward_aux&#45;&gt;sign_eval_eval_hd_eq</title>
<path fill="none" stroke="black" d="M583.22,-334.14C506.41,-315.55 365.98,-281.57 287.97,-262.7"/>
<polygon fill="black" stroke="black" points="288.4,-259.2 277.86,-260.25 286.75,-266 288.4,-259.2"/>
</g>
<!-- sign_eval_eval_ind -->
<g id="node39" class="node">
<title>sign_eval_eval_ind</title>
<g id="a_node39"><a xlink:href="sign_eval.html#eval_ind" xlink:title="eval_ind">
<ellipse fill="#7fffd4" stroke="black" cx="429" cy="-47.15" rx="48.99" ry="18"/>
<text text-anchor="middle" x="429" y="-43.45" font-family="Times,serif" font-size="14.00">eval_ind</text>
</a>
</g>
</g>
<!-- sign_eval_pp_forward_aux&#45;&gt;sign_eval_eval_ind -->
<g id="edge23" class="edge">
<title>sign_eval_pp_forward_aux&#45;&gt;sign_eval_eval_ind</title>
<path fill="none" stroke="black" d="M616.32,-330.45C598.26,-315.11 572.16,-291.03 554,-266.15 514.15,-211.57 520.49,-188.27 486,-130.15 474.21,-110.28 459.24,-88.86 447.6,-72.91"/>
<polygon fill="black" stroke="black" points="450.27,-70.62 441.52,-64.65 444.63,-74.77 450.27,-70.62"/>
</g>
<!-- sign_eval_eval_len&#45;&gt;sign_eval_eval_ind -->
<g id="edge30" class="edge">
<title>sign_eval_eval_len&#45;&gt;sign_eval_eval_ind</title>
<path fill="none" stroke="black" d="M429,-129.91C429,-114.86 429,-92.77 429,-75.34"/>
<polygon fill="black" stroke="black" points="432.5,-75.2 429,-65.2 425.5,-75.2 432.5,-75.2"/>
</g>
<!-- sign_eval_weaker_substitute -->
<g id="node16" class="node">
<title>sign_eval_weaker_substitute</title>
<g id="a_node16"><a xlink:href="sign_eval.html#weaker_substitute" xlink:title="weaker_substitute">
<ellipse fill="#7fffd4" stroke="black" cx="1553" cy="-649.15" rx="96.38" ry="18"/>
<text text-anchor="middle" x="1553" y="-645.45" font-family="Times,serif" font-size="14.00">weaker_substitute</text>
</a>
</g>
</g>
<!-- sign_eval_weaker_substitute&#45;&gt;sign_eval_weaker_cons2 -->
<g id="edge33" class="edge">
<title>sign_eval_weaker_substitute&#45;&gt;sign_eval_weaker_cons2</title>
<path fill="none" stroke="black" d="M1569.9,-631.08C1585.47,-615.34 1608.76,-591.82 1626.21,-574.18"/>
<polygon fill="black" stroke="black" points="1628.75,-576.6 1633.3,-567.03 1623.78,-571.67 1628.75,-576.6"/>
</g>
<!-- sign_eval_weaker_app -->
<g id="node28" class="node">
<title>sign_eval_weaker_app</title>
<g id="a_node28"><a xlink:href="sign_eval.html#weaker_app" xlink:title="weaker_app">
<ellipse fill="#7fffd4" stroke="black" cx="1843" cy="-549.15" rx="65.79" ry="18"/>
<text text-anchor="middle" x="1843" y="-545.45" font-family="Times,serif" font-size="14.00">weaker_app</text>
</a>
</g>
</g>
<!-- sign_eval_weaker_substitute&#45;&gt;sign_eval_weaker_app -->
<g id="edge32" class="edge">
<title>sign_eval_weaker_substitute&#45;&gt;sign_eval_weaker_app</title>
<path fill="none" stroke="black" d="M1597.36,-633.16C1650.35,-615.26 1738.71,-585.39 1793.77,-566.79"/>
<polygon fill="black" stroke="black" points="1794.95,-570.08 1803.31,-563.57 1792.71,-563.45 1794.95,-570.08"/>
</g>
<!-- sign_eval_weaker_substitute&#45;&gt;sign_eval_weaker_refl -->
<g id="edge31" class="edge">
<title>sign_eval_weaker_substitute&#45;&gt;sign_eval_weaker_refl</title>
<path fill="none" stroke="black" d="M1614.71,-635.34C1705.66,-616.46 1874.64,-581.37 1964.75,-562.66"/>
<polygon fill="black" stroke="black" points="1965.73,-566.03 1974.81,-560.57 1964.31,-559.18 1965.73,-566.03"/>
</g>
<!-- sign_eval_last_removelast -->
<g id="node18" class="node">
<title>sign_eval_last_removelast</title>
<g id="a_node18"><a xlink:href="sign_eval.html#last_removelast" xlink:title="last_removelast">
<ellipse fill="#7fffd4" stroke="black" cx="320" cy="-649.15" rx="83.69" ry="18"/>
<text text-anchor="middle" x="320" y="-645.45" font-family="Times,serif" font-size="14.00">last_removelast</text>
</a>
</g>
</g>
<!-- sign_eval_greedy_eval_sound -->
<g id="node19" class="node">
<title>sign_eval_greedy_eval_sound</title>
<g id="a_node19"><a xlink:href="sign_eval.html#greedy_eval_sound" xlink:title="greedy_eval_sound">
<ellipse fill="#7fffd4" stroke="black" cx="719" cy="-649.15" rx="98.58" ry="18"/>
<text text-anchor="middle" x="719" y="-645.45" font-family="Times,serif" font-size="14.00">greedy_eval_sound</text>
</a>
</g>
</g>
<!-- sign_eval_greedy_eval_sound&#45;&gt;sign_eval_greedy_eval_flip_eval -->
<g id="edge35" class="edge">
<title>sign_eval_greedy_eval_sound&#45;&gt;sign_eval_greedy_eval_flip_eval</title>
<path fill="none" stroke="black" d="M790.73,-636.76C802.83,-634.87 815.27,-632.94 827,-631.15 989.38,-606.42 1178.94,-578.77 1287.77,-563.02"/>
<polygon fill="black" stroke="black" points="1288.33,-566.47 1297.72,-561.58 1287.33,-559.54 1288.33,-566.47"/>
</g>
<!-- sign_eval_greedy_eval_sound&#45;&gt;sign_eval_eval_refl -->
<g id="edge34" class="edge">
<title>sign_eval_greedy_eval_sound&#45;&gt;sign_eval_eval_refl</title>
<path fill="none" stroke="black" d="M789.21,-636.47C801.77,-634.56 814.76,-632.7 827,-631.15 974.95,-612.44 1377.62,-659.13 1495,-567.15 1538.37,-533.17 1536,-505.25 1536,-450.15 1536,-450.15 1536,-450.15 1536,-347.15 1536,-279.92 1492.79,-210.25 1466.58,-174.18"/>
<polygon fill="black" stroke="black" points="1469.1,-171.69 1460.32,-165.75 1463.48,-175.87 1469.1,-171.69"/>
</g>
<!-- sign_eval_repeat_or_split -->
<g id="node20" class="node">
<title>sign_eval_repeat_or_split</title>
<g id="a_node20"><a xlink:href="sign_eval.html#repeat_or_split" xlink:title="repeat_or_split">
<ellipse fill="#7fffd4" stroke="black" cx="522" cy="-649.15" rx="79.89" ry="18"/>
<text text-anchor="middle" x="522" y="-645.45" font-family="Times,serif" font-size="14.00">repeat_or_split</text>
</a>
</g>
</g>
<!-- sign_eval_eval_firstn&#45;&gt;sign_eval_nat_compare -->
<g id="edge39" class="edge">
<title>sign_eval_eval_firstn&#45;&gt;sign_eval_nat_compare</title>
<path fill="none" stroke="black" d="M638.92,-230.08C640.58,-215.28 643.01,-193.58 644.94,-176.38"/>
<polygon fill="black" stroke="black" points="648.43,-176.68 646.07,-166.36 641.48,-175.9 648.43,-176.68"/>
</g>
<!-- sign_eval_eval_firstn&#45;&gt;sign_eval_eval_P -->
<g id="edge40" class="edge">
<title>sign_eval_eval_firstn&#45;&gt;sign_eval_eval_P</title>
<path fill="none" stroke="black" d="M657.3,-231.17C677.4,-215.16 708.88,-189.59 735,-166.15 752.08,-150.83 751.55,-140.56 772,-130.15 914.52,-57.61 1108.67,-47.57 1199.4,-47.22"/>
<polygon fill="black" stroke="black" points="1199.42,-50.72 1209.42,-47.22 1199.42,-43.72 1199.42,-50.72"/>
</g>
<!-- sign_eval_eval_firstn&#45;&gt;sign_eval_eval_N -->
<g id="edge41" class="edge">
<title>sign_eval_eval_firstn&#45;&gt;sign_eval_eval_N</title>
<path fill="none" stroke="black" d="M663.21,-231.97C688.56,-216.75 727.5,-191.94 758,-166.15 774.81,-151.94 772.39,-140.13 792,-130.15 994.47,-27.12 1077.38,-115.11 1299,-65.15 1302.64,-64.33 1306.39,-63.36 1310.13,-62.31"/>
<polygon fill="black" stroke="black" points="1311.35,-65.6 1319.92,-59.37 1309.34,-58.89 1311.35,-65.6"/>
</g>
<!-- sign_eval_eval_firstn&#45;&gt;sign_eval_eval_refl -->
<g id="edge36" class="edge">
<title>sign_eval_eval_firstn&#45;&gt;sign_eval_eval_refl</title>
<path fill="none" stroke="black" d="M684.38,-237.29C697.5,-234.75 711.77,-232.17 725,-230.15 970.6,-192.71 1265.67,-164.94 1388.7,-154.12"/>
<polygon fill="black" stroke="black" points="1389.01,-157.6 1398.66,-153.24 1388.4,-150.63 1389.01,-157.6"/>
</g>
<!-- sign_eval_eval_firstn&#45;&gt;sign_eval_eval_len -->
<g id="edge37" class="edge">
<title>sign_eval_eval_firstn&#45;&gt;sign_eval_eval_len</title>
<path fill="none" stroke="black" d="M606.31,-232.69C569.27,-215.24 507,-185.9 466.98,-167.05"/>
<polygon fill="black" stroke="black" points="468.34,-163.82 457.81,-162.72 465.36,-170.15 468.34,-163.82"/>
</g>
<!-- sign_eval_eval_firstn&#45;&gt;sign_eval_eval_ind -->
<g id="edge38" class="edge">
<title>sign_eval_eval_firstn&#45;&gt;sign_eval_eval_ind</title>
<path fill="none" stroke="black" d="M663.48,-232.04C699.11,-209.78 754.96,-166.84 727,-130.15 697.74,-91.76 562.41,-66.83 484.56,-55.4"/>
<polygon fill="black" stroke="black" points="484.83,-51.9 474.44,-53.94 483.84,-58.83 484.83,-51.9"/>
</g>
<!-- sign_eval_eval_diff_N -->
<g id="node24" class="node">
<title>sign_eval_eval_diff_N</title>
<g id="a_node24"><a xlink:href="sign_eval.html#eval_diff_N" xlink:title="eval_diff_N">
<ellipse fill="#7fffd4" stroke="black" cx="174" cy="-348.15" rx="61.99" ry="18"/>
<text text-anchor="middle" x="174" y="-344.45" font-family="Times,serif" font-size="14.00">eval_diff_N</text>
</a>
</g>
</g>
<!-- sign_eval_eval_diff_N&#45;&gt;sign_eval_eval_len -->
<g id="edge42" class="edge">
<title>sign_eval_eval_diff_N&#45;&gt;sign_eval_eval_len</title>
<path fill="none" stroke="black" d="M165.44,-330.15C154.41,-305.53 139.07,-259.69 161,-230.15 186.61,-195.65 304.68,-170.17 375.28,-157.71"/>
<polygon fill="black" stroke="black" points="376.08,-161.12 385.33,-155.96 374.88,-154.22 376.08,-161.12"/>
</g>
<!-- sign_eval_eval_diff_N&#45;&gt;sign_eval_eval_hd_eq -->
<g id="edge43" class="edge">
<title>sign_eval_eval_diff_N&#45;&gt;sign_eval_eval_hd_eq</title>
<path fill="none" stroke="black" d="M184.1,-330.08C193.08,-314.91 206.35,-292.49 216.65,-275.1"/>
<polygon fill="black" stroke="black" points="219.93,-276.42 222.01,-266.03 213.91,-272.85 219.93,-276.42"/>
</g>
<!-- sign_eval_last_nth -->
<g id="node38" class="node">
<title>sign_eval_last_nth</title>
<g id="a_node38"><a xlink:href="sign_eval.html#last_nth" xlink:title="last_nth">
<ellipse fill="#7fffd4" stroke="black" cx="84" cy="-248.15" rx="48.19" ry="18"/>
<text text-anchor="middle" x="84" y="-244.45" font-family="Times,serif" font-size="14.00">last_nth</text>
</a>
</g>
</g>
<!-- sign_eval_eval_diff_N&#45;&gt;sign_eval_last_nth -->
<g id="edge44" class="edge">
<title>sign_eval_eval_diff_N&#45;&gt;sign_eval_last_nth</title>
<path fill="none" stroke="black" d="M158.73,-330.53C144.29,-314.81 122.46,-291.03 106.12,-273.24"/>
<polygon fill="black" stroke="black" points="108.38,-270.53 99.04,-265.53 103.23,-275.26 108.38,-270.53"/>
</g>
<!-- sign_eval_eval_diff_N&#45;&gt;sign_eval_eval_ind -->
<g id="edge45" class="edge">
<title>sign_eval_eval_diff_N&#45;&gt;sign_eval_eval_ind</title>
<path fill="none" stroke="black" d="M132.61,-334.77C78.89,-316.45 -4.47,-278.94 27,-230.15 104.27,-110.35 281.6,-68.55 372.71,-54.66"/>
<polygon fill="black" stroke="black" points="373.46,-58.08 382.85,-53.17 372.44,-51.16 373.46,-58.08"/>
</g>
<!-- sign_eval_destruct_list_eq -->
<g id="node40" class="node">
<title>sign_eval_destruct_list_eq</title>
<g id="a_node40"><a xlink:href="sign_eval.html#destruct_list_eq" xlink:title="destruct_list_eq">
<ellipse fill="#7fffd4" stroke="black" cx="416" cy="-248.15" rx="84.49" ry="18"/>
<text text-anchor="middle" x="416" y="-244.45" font-family="Times,serif" font-size="14.00">destruct_list_eq</text>
</a>
</g>
</g>
<!-- sign_eval_eval_diff_N&#45;&gt;sign_eval_destruct_list_eq -->
<g id="edge46" class="edge">
<title>sign_eval_eval_diff_N&#45;&gt;sign_eval_destruct_list_eq</title>
<path fill="none" stroke="black" d="M208.67,-333.11C250.86,-316.03 322.25,-287.12 369.26,-268.08"/>
<polygon fill="black" stroke="black" points="370.65,-271.29 378.61,-264.29 368.03,-264.8 370.65,-271.29"/>
</g>
<!-- sign_eval_weaker_repeat -->
<g id="node25" class="node">
<title>sign_eval_weaker_repeat</title>
<g id="a_node25"><a xlink:href="sign_eval.html#weaker_repeat" xlink:title="weaker_repeat">
<ellipse fill="#7fffd4" stroke="black" cx="915" cy="-649.15" rx="79.09" ry="18"/>
<text text-anchor="middle" x="915" y="-645.45" font-family="Times,serif" font-size="14.00">weaker_repeat</text>
</a>
</g>
</g>
<!-- sign_eval_weaker_cons1 -->
<g id="node26" class="node">
<title>sign_eval_weaker_cons1</title>
<g id="a_node26"><a xlink:href="sign_eval.html#weaker_cons1" xlink:title="weaker_cons1">
<ellipse fill="#7fffd4" stroke="black" cx="1088" cy="-649.15" rx="75.29" ry="18"/>
<text text-anchor="middle" x="1088" y="-645.45" font-family="Times,serif" font-size="14.00">weaker_cons1</text>
</a>
</g>
</g>
<!-- sign_eval_greedy_eval_progress&#45;&gt;sign_eval_eval_refl -->
<g id="edge48" class="edge">
<title>sign_eval_greedy_eval_progress&#45;&gt;sign_eval_eval_refl</title>
<path fill="none" stroke="black" d="M1108.31,-732.35C1126.42,-716.7 1152.95,-692.09 1172,-667.15 1183.11,-652.61 1177.21,-641.93 1192,-631.15 1310.28,-544.97 1404.46,-663.06 1515,-567.15 1556.62,-531.04 1556,-505.25 1556,-450.15 1556,-450.15 1556,-450.15 1556,-347.15 1556,-276.74 1502.45,-207.77 1470.42,-172.8"/>
<polygon fill="black" stroke="black" points="1472.94,-170.37 1463.55,-165.46 1467.83,-175.16 1472.94,-170.37"/>
</g>
<!-- sign_eval_greedy_eval_progress&#45;&gt;sign_eval_pp_forward -->
<g id="edge49" class="edge">
<title>sign_eval_greedy_eval_progress&#45;&gt;sign_eval_pp_forward</title>
<path fill="none" stroke="black" d="M983.9,-743.56C808.32,-733.06 468.81,-707.72 433,-667.15 380.84,-608.05 460.54,-516.32 504.35,-473.57"/>
<polygon fill="black" stroke="black" points="507.02,-475.86 511.82,-466.41 502.17,-470.8 507.02,-475.86"/>
</g>
<!-- sign_eval_greedy_eval_progress&#45;&gt;sign_eval_signs_bifurcate -->
<g id="edge50" class="edge">
<title>sign_eval_greedy_eval_progress&#45;&gt;sign_eval_signs_bifurcate</title>
<path fill="none" stroke="black" d="M986.23,-742.69C819.69,-731.49 478.77,-705.86 192,-667.15 183.65,-666.02 174.91,-664.68 166.25,-663.26"/>
<polygon fill="black" stroke="black" points="166.61,-659.77 156.17,-661.55 165.44,-666.67 166.61,-659.77"/>
</g>
<!-- sign_eval_greedy_eval_progress&#45;&gt;sign_eval_eval_len -->
<g id="edge51" class="edge">
<title>sign_eval_greedy_eval_progress&#45;&gt;sign_eval_eval_len</title>
<path fill="none" stroke="black" d="M978.13,-746.77C757.35,-740.83 276.62,-721.73 227,-667.15 216.24,-655.31 225.12,-647.04 227,-631.15 237.74,-540.15 273.04,-306.96 323,-230.15 340.28,-203.58 369.37,-182.28 392.71,-168.2"/>
<polygon fill="black" stroke="black" points="394.79,-171.04 401.66,-162.98 391.26,-164.99 394.79,-171.04"/>
</g>
<!-- sign_eval_greedy_eval_progress&#45;&gt;sign_eval_weaker_substitute -->
<g id="edge52" class="edge">
<title>sign_eval_greedy_eval_progress&#45;&gt;sign_eval_weaker_substitute</title>
<path fill="none" stroke="black" d="M1152.66,-735.39C1239.25,-716.95 1392.35,-684.36 1482.04,-665.26"/>
<polygon fill="black" stroke="black" points="1482.8,-668.68 1491.85,-663.17 1481.34,-661.83 1482.8,-668.68"/>
</g>
<!-- sign_eval_greedy_eval_progress&#45;&gt;sign_eval_last_removelast -->
<g id="edge53" class="edge">
<title>sign_eval_greedy_eval_progress&#45;&gt;sign_eval_last_removelast</title>
<path fill="none" stroke="black" d="M997.59,-739.54C868.69,-725.5 624.79,-697.72 418,-667.15 409.5,-665.9 400.6,-664.48 391.78,-663.03"/>
<polygon fill="black" stroke="black" points="392.31,-659.57 381.87,-661.37 391.16,-666.47 392.31,-659.57"/>
</g>
<!-- sign_eval_greedy_eval_progress&#45;&gt;sign_eval_greedy_eval_sound -->
<g id="edge54" class="edge">
<title>sign_eval_greedy_eval_progress&#45;&gt;sign_eval_greedy_eval_sound</title>
<path fill="none" stroke="black" d="M1033.16,-734.44C965.95,-716.41 852.33,-685.92 781.72,-666.98"/>
<polygon fill="black" stroke="black" points="782.61,-663.6 772.05,-664.38 780.8,-670.36 782.61,-663.6"/>
</g>
<!-- sign_eval_greedy_eval_progress&#45;&gt;sign_eval_repeat_or_split -->
<g id="edge55" class="edge">
<title>sign_eval_greedy_eval_progress&#45;&gt;sign_eval_repeat_or_split</title>
<path fill="none" stroke="black" d="M1013.15,-736.73C919.16,-721.02 753,-692.92 611,-667.15 604.34,-665.94 597.41,-664.66 590.49,-663.37"/>
<polygon fill="black" stroke="black" points="590.85,-659.87 580.38,-661.46 589.56,-666.75 590.85,-659.87"/>
</g>
<!-- sign_eval_greedy_eval_progress&#45;&gt;sign_eval_eval_diff_N -->
<g id="edge56" class="edge">
<title>sign_eval_greedy_eval_progress&#45;&gt;sign_eval_eval_diff_N</title>
<path fill="none" stroke="black" d="M978.44,-746.46C755.58,-739.91 265.87,-719.66 212,-667.15 171.09,-627.27 171.37,-446.5 173.08,-376.73"/>
<polygon fill="black" stroke="black" points="176.58,-376.62 173.36,-366.53 169.58,-376.43 176.58,-376.62"/>
</g>
<!-- sign_eval_greedy_eval_progress&#45;&gt;sign_eval_weaker_repeat -->
<g id="edge57" class="edge">
<title>sign_eval_greedy_eval_progress&#45;&gt;sign_eval_weaker_repeat</title>
<path fill="none" stroke="black" d="M1059.04,-732.58C1029.63,-715.75 983.96,-689.62 951.95,-671.3"/>
<polygon fill="black" stroke="black" points="953.32,-668.05 942.9,-666.12 949.84,-674.12 953.32,-668.05"/>
</g>
<!-- sign_eval_greedy_eval_progress&#45;&gt;sign_eval_weaker_cons1 -->
<g id="edge58" class="edge">
<title>sign_eval_greedy_eval_progress&#45;&gt;sign_eval_weaker_cons1</title>
<path fill="none" stroke="black" d="M1088,-731.91C1088,-716.86 1088,-694.77 1088,-677.34"/>
<polygon fill="black" stroke="black" points="1091.5,-677.2 1088,-667.2 1084.5,-677.2 1091.5,-677.2"/>
</g>
<!-- sign_eval_greedy_eval_progress&#45;&gt;sign_eval_weaker_app -->
<g id="edge59" class="edge">
<title>sign_eval_greedy_eval_progress&#45;&gt;sign_eval_weaker_app</title>
<path fill="none" stroke="black" d="M1199.14,-747.81C1437.79,-743.77 1982.25,-727.92 2038,-667.15 2084.46,-616.51 1977.59,-580.65 1904.42,-562.87"/>
<polygon fill="black" stroke="black" points="1904.87,-559.39 1894.34,-560.49 1903.26,-566.2 1904.87,-559.39"/>
</g>
<!-- sign_eval_count_occ_lt_substitute -->
<g id="node29" class="node">
<title>sign_eval_count_occ_lt_substitute</title>
<g id="a_node29"><a xlink:href="sign_eval.html#count_occ_lt_substitute" xlink:title="count_occ_lt_substitute">
<ellipse fill="#7fffd4" stroke="black" cx="1320" cy="-649.15" rx="118.88" ry="18"/>
<text text-anchor="middle" x="1320" y="-645.45" font-family="Times,serif" font-size="14.00">count_occ_lt_substitute</text>
</a>
</g>
</g>
<!-- sign_eval_greedy_eval_progress&#45;&gt;sign_eval_count_occ_lt_substitute -->
<g id="edge60" class="edge">
<title>sign_eval_greedy_eval_progress&#45;&gt;sign_eval_count_occ_lt_substitute</title>
<path fill="none" stroke="black" d="M1125.53,-733.14C1165.68,-716.01 1229.43,-688.8 1272.91,-670.25"/>
<polygon fill="black" stroke="black" points="1274.31,-673.45 1282.14,-666.31 1271.56,-667.02 1274.31,-673.45"/>
</g>
<!-- sign_eval_greedy_eval_progress&#45;&gt;sign_eval_weaker_refl -->
<g id="edge47" class="edge">
<title>sign_eval_greedy_eval_progress&#45;&gt;sign_eval_weaker_refl</title>
<path fill="none" stroke="black" d="M1198.95,-747.92C1439.39,-744.1 1991.54,-728.64 2048,-667.15 2070.57,-642.57 2055.6,-602.55 2041.41,-576.29"/>
<polygon fill="black" stroke="black" points="2044.28,-574.25 2036.29,-567.29 2038.19,-577.71 2044.28,-574.25"/>
</g>
<!-- sign_eval_greedy_eval_refl -->
<g id="node32" class="node">
<title>sign_eval_greedy_eval_refl</title>
<g id="a_node32"><a xlink:href="sign_eval.html#greedy_eval_refl" xlink:title="greedy_eval_refl">
<ellipse fill="#7faaff" stroke="black" cx="1754" cy="-649.15" rx="86.38" ry="18"/>
<text text-anchor="middle" x="1754" y="-645.45" font-family="Times,serif" font-size="14.00">greedy_eval_refl</text>
</a>
</g>
</g>
<!-- sign_eval_greedy_eval_progress&#45;&gt;sign_eval_greedy_eval_refl -->
<g id="edge61" class="edge">
<title>sign_eval_greedy_eval_progress&#45;&gt;sign_eval_greedy_eval_refl</title>
<path fill="none" stroke="black" d="M1171.2,-738.04C1282.32,-723.01 1485.25,-694.87 1658,-667.15 1665.58,-665.94 1673.49,-664.62 1681.37,-663.27"/>
<polygon fill="black" stroke="black" points="1682.05,-666.71 1691.31,-661.56 1680.86,-659.81 1682.05,-666.71"/>
</g>
<!-- sign_eval_greedy_eval_flip -->
<g id="node33" class="node">
<title>sign_eval_greedy_eval_flip</title>
<g id="a_node33"><a xlink:href="sign_eval.html#greedy_eval_flip" xlink:title="greedy_eval_flip">
<ellipse fill="#7faaff" stroke="black" cx="1944" cy="-649.15" rx="85.29" ry="18"/>
<text text-anchor="middle" x="1944" y="-645.45" font-family="Times,serif" font-size="14.00">greedy_eval_flip</text>
</a>
</g>
</g>
<!-- sign_eval_greedy_eval_progress&#45;&gt;sign_eval_greedy_eval_flip -->
<g id="edge62" class="edge">
<title>sign_eval_greedy_eval_progress&#45;&gt;sign_eval_greedy_eval_flip</title>
<path fill="none" stroke="black" d="M1184.37,-740.94C1329.08,-728.12 1610.91,-701.24 1849,-667.15 1856.7,-666.05 1864.73,-664.79 1872.71,-663.46"/>
<polygon fill="black" stroke="black" points="1873.5,-666.88 1882.78,-661.76 1872.33,-659.98 1873.5,-666.88"/>
</g>
<!-- sign_eval_value_app -->
<g id="node35" class="node">
<title>sign_eval_value_app</title>
<g id="a_node35"><a xlink:href="sign_eval.html#value_app" xlink:title="value_app">
<ellipse fill="#7fffd4" stroke="black" cx="1769" cy="-449.15" rx="57.39" ry="18"/>
<text text-anchor="middle" x="1769" y="-445.45" font-family="Times,serif" font-size="14.00">value_app</text>
</a>
</g>
</g>
<!-- sign_eval_weaker_app&#45;&gt;sign_eval_value_app -->
<g id="edge63" class="edge">
<title>sign_eval_weaker_app&#45;&gt;sign_eval_value_app</title>
<path fill="none" stroke="black" d="M1830.11,-531.08C1818.44,-515.62 1801.1,-492.66 1787.86,-475.13"/>
<polygon fill="black" stroke="black" points="1790.56,-472.9 1781.74,-467.03 1784.98,-477.12 1790.56,-472.9"/>
</g>
<!-- sign_eval_combine_app -->
<g id="node36" class="node">
<title>sign_eval_combine_app</title>
<g id="a_node36"><a xlink:href="sign_eval.html#combine_app" xlink:title="combine_app">
<ellipse fill="#7fffd4" stroke="black" cx="1916" cy="-449.15" rx="71.49" ry="18"/>
<text text-anchor="middle" x="1916" y="-445.45" font-family="Times,serif" font-size="14.00">combine_app</text>
</a>
</g>
</g>
<!-- sign_eval_weaker_app&#45;&gt;sign_eval_combine_app -->
<g id="edge64" class="edge">
<title>sign_eval_weaker_app&#45;&gt;sign_eval_combine_app</title>
<path fill="none" stroke="black" d="M1855.72,-531.08C1867.23,-515.62 1884.34,-492.66 1897.39,-475.13"/>
<polygon fill="black" stroke="black" points="1900.26,-477.14 1903.43,-467.03 1894.65,-472.96 1900.26,-477.14"/>
</g>
<!-- sign_eval_eval_hd_eq&#45;&gt;sign_eval_eval_len -->
<g id="edge65" class="edge">
<title>sign_eval_eval_hd_eq&#45;&gt;sign_eval_eval_len</title>
<path fill="none" stroke="black" d="M261.92,-232.27C296.85,-214.89 354.62,-186.16 392.24,-167.44"/>
<polygon fill="black" stroke="black" points="393.95,-170.5 401.35,-162.91 390.84,-164.23 393.95,-170.5"/>
</g>
<!-- sign_eval_eval_hd_eq&#45;&gt;sign_eval_eval_ind -->
<g id="edge66" class="edge">
<title>sign_eval_eval_hd_eq&#45;&gt;sign_eval_eval_ind</title>
<path fill="none" stroke="black" d="M248.46,-230.53C283.47,-195.16 365.42,-112.38 405.75,-71.64"/>
<polygon fill="black" stroke="black" points="408.46,-73.88 413,-64.31 403.48,-68.96 408.46,-73.88"/>
</g>
<!-- sign_eval_destruct_list_eq&#45;&gt;sign_eval_nat_compare -->
<g id="edge67" class="edge">
<title>sign_eval_destruct_list_eq&#45;&gt;sign_eval_nat_compare</title>
<path fill="none" stroke="black" d="M452.25,-231.84C493.21,-214.54 559.89,-186.37 603.85,-167.8"/>
<polygon fill="black" stroke="black" points="605.29,-170.99 613.14,-163.88 602.57,-164.54 605.29,-170.99"/>
</g>
</g>
</svg>
