<?xml version="1.0" encoding="UTF-8" standalone="no"?>
<!DOCTYPE svg PUBLIC "-//W3C//DTD SVG 1.1//EN"
 "http://www.w3.org/Graphics/SVG/1.1/DTD/svg11.dtd">
<!-- Generated by graphviz version 2.43.0 (0)
 -->
<!-- Title: define_dep Pages: 1 -->
<svg width="654pt" height="331pt"
 viewBox="0.00 0.00 654.00 331.00" xmlns="http://www.w3.org/2000/svg" xmlns:xlink="http://www.w3.org/1999/xlink">
<g id="graph0" class="graph" transform="scale(1 1) rotate(0) translate(4 327)">
<title>define_dep</title>
<polygon fill="white" stroke="transparent" points="-4,4 -4,-327 650,-327 650,4 -4,4"/>
<g id="clust1" class="cluster">
<title>cluster_sign_eval</title>
<polygon fill="#ffffc3" stroke="black" points="15.76,-8 15.76,-315 630.24,-315 630.24,-8 15.76,-8"/>
<text text-anchor="middle" x="57.26" y="-299.8" font-family="Times,serif" font-size="14.00">sign_eval</text>
</g>
<!-- sign_eval_greedy_eval_complete_spec -->
<g id="node1" class="node">
<title>sign_eval_greedy_eval_complete_spec</title>
<g id="a_node1"><a xlink:href="sign_eval.html#greedy_eval_complete_spec" xlink:title="greedy_eval_complete_spec">
<ellipse fill="#f070d1" stroke="black" cx="319.09" cy="-258" rx="138.38" ry="18"/>
<ellipse fill="none" stroke="black" cx="319.09" cy="-258" rx="142.38" ry="22"/>
<ellipse fill="none" stroke="black" cx="319.09" cy="-258" rx="146.38" ry="26"/>
<text text-anchor="middle" x="319.09" y="-254.3" font-family="Times,serif" font-size="14.00">greedy_eval_complete_spec</text>
</a>
</g>
</g>
<!-- sign_eval_weaker -->
<g id="node2" class="node">
<title>sign_eval_weaker</title>
<g id="a_node2"><a xlink:href="sign_eval.html#weaker" xlink:title="weaker">
<ellipse fill="#f070d1" stroke="black" cx="128.09" cy="-178" rx="44.39" ry="18"/>
<text text-anchor="middle" x="128.09" y="-174.3" font-family="Times,serif" font-size="14.00">weaker</text>
</a>
</g>
</g>
<!-- sign_eval_greedy_eval_complete_spec&#45;&gt;sign_eval_weaker -->
<g id="edge1" class="edge">
<title>sign_eval_greedy_eval_complete_spec&#45;&gt;sign_eval_weaker</title>
<path fill="none" stroke="black" d="M262.56,-233.91C231.96,-221.42 194.91,-206.29 167.46,-195.08"/>
<polygon fill="black" stroke="black" points="168.76,-191.83 158.17,-191.29 166.11,-198.31 168.76,-191.83"/>
</g>
<!-- sign_eval_eval -->
<g id="node3" class="node">
<title>sign_eval_eval</title>
<g id="a_node3"><a xlink:href="sign_eval.html#eval" xlink:title="eval">
<ellipse fill="#e2cdfa" stroke="black" cx="313.09" cy="-178" rx="29.8" ry="18"/>
<text text-anchor="middle" x="313.09" y="-174.3" font-family="Times,serif" font-size="14.00">eval</text>
</a>
</g>
</g>
<!-- sign_eval_greedy_eval_complete_spec&#45;&gt;sign_eval_eval -->
<g id="edge2" class="edge">
<title>sign_eval_greedy_eval_complete_spec&#45;&gt;sign_eval_eval</title>
<path fill="none" stroke="black" d="M317.16,-231.89C316.54,-223.84 315.85,-214.88 315.22,-206.66"/>
<polygon fill="black" stroke="black" points="318.69,-206.11 314.43,-196.41 311.71,-206.65 318.69,-206.11"/>
</g>
<!-- sign_eval_greedy_eval -->
<g id="node5" class="node">
<title>sign_eval_greedy_eval</title>
<g id="a_node5"><a xlink:href="sign_eval.html#greedy_eval" xlink:title="greedy_eval">
<ellipse fill="#e2cdfa" stroke="black" cx="484.09" cy="-106" rx="66.09" ry="18"/>
<text text-anchor="middle" x="484.09" y="-102.3" font-family="Times,serif" font-size="14.00">greedy_eval</text>
</a>
</g>
</g>
<!-- sign_eval_greedy_eval_complete_spec&#45;&gt;sign_eval_greedy_eval -->
<g id="edge3" class="edge">
<title>sign_eval_greedy_eval_complete_spec&#45;&gt;sign_eval_greedy_eval</title>
<path fill="none" stroke="black" d="M346.34,-232.23C377.43,-203.97 427.89,-158.09 458.34,-130.41"/>
<polygon fill="black" stroke="black" points="460.95,-132.77 466,-123.45 456.24,-127.59 460.95,-132.77"/>
</g>
<!-- sign_eval_value -->
<g id="node9" class="node">
<title>sign_eval_value</title>
<g id="a_node9"><a xlink:href="sign_eval.html#value" xlink:title="value">
<ellipse fill="#f070d1" stroke="black" cx="102.09" cy="-106" rx="36" ry="18"/>
<text text-anchor="middle" x="102.09" y="-102.3" font-family="Times,serif" font-size="14.00">value</text>
</a>
</g>
</g>
<!-- sign_eval_weaker&#45;&gt;sign_eval_value -->
<g id="edge4" class="edge">
<title>sign_eval_weaker&#45;&gt;sign_eval_value</title>
<path fill="none" stroke="black" d="M121.8,-160.05C118.83,-152.06 115.21,-142.33 111.9,-133.4"/>
<polygon fill="black" stroke="black" points="115.09,-131.94 108.33,-123.79 108.53,-134.38 115.09,-131.94"/>
</g>
<!-- sign_eval_neg -->
<g id="node8" class="node">
<title>sign_eval_neg</title>
<g id="a_node8"><a xlink:href="sign_eval.html#neg" xlink:title="neg">
<ellipse fill="#f070d1" stroke="black" cx="264.09" cy="-106" rx="27.9" ry="18"/>
<text text-anchor="middle" x="264.09" y="-102.3" font-family="Times,serif" font-size="14.00">neg</text>
</a>
</g>
</g>
<!-- sign_eval_eval&#45;&gt;sign_eval_neg -->
<g id="edge5" class="edge">
<title>sign_eval_eval&#45;&gt;sign_eval_neg</title>
<path fill="none" stroke="black" d="M301.97,-161.12C295.77,-152.26 287.92,-141.04 280.97,-131.12"/>
<polygon fill="black" stroke="black" points="283.77,-129.01 275.17,-122.82 278.03,-133.02 283.77,-129.01"/>
</g>
<!-- sign_eval_sign -->
<g id="node4" class="node">
<title>sign_eval_sign</title>
<g id="a_node4"><a xlink:href="sign_eval.html#sign" xlink:title="sign">
<ellipse fill="#e2cdfa" stroke="black" cx="193.09" cy="-34" rx="30.59" ry="18"/>
<text text-anchor="middle" x="193.09" y="-30.3" font-family="Times,serif" font-size="14.00">sign</text>
</a>
</g>
</g>
<!-- sign_eval_greedy_eval&#45;&gt;sign_eval_sign -->
<g id="edge6" class="edge">
<title>sign_eval_greedy_eval&#45;&gt;sign_eval_sign</title>
<path fill="none" stroke="black" d="M436.04,-93.44C378.53,-79.61 283.43,-56.73 230.89,-44.09"/>
<polygon fill="black" stroke="black" points="231.52,-40.64 220.98,-41.71 229.88,-47.45 231.52,-40.64"/>
</g>
<!-- sign_eval_P -->
<g id="node6" class="node">
<title>sign_eval_P</title>
<g id="a_node6"><a xlink:href="sign_eval.html#P" xlink:title="P">
<ellipse fill="#7faaff" stroke="black" cx="343.09" cy="-34" rx="27" ry="18"/>
<text text-anchor="middle" x="343.09" y="-30.3" font-family="Times,serif" font-size="14.00">P</text>
</a>
</g>
</g>
<!-- sign_eval_greedy_eval&#45;&gt;sign_eval_P -->
<g id="edge7" class="edge">
<title>sign_eval_greedy_eval&#45;&gt;sign_eval_P</title>
<path fill="none" stroke="black" d="M453.5,-89.81C429.72,-78.01 396.91,-61.72 373.25,-49.97"/>
<polygon fill="black" stroke="black" points="374.55,-46.71 364.04,-45.4 371.44,-52.98 374.55,-46.71"/>
</g>
<!-- sign_eval_N -->
<g id="node7" class="node">
<title>sign_eval_N</title>
<g id="a_node7"><a xlink:href="sign_eval.html#N" xlink:title="N">
<ellipse fill="#7faaff" stroke="black" cx="484.09" cy="-34" rx="27" ry="18"/>
<text text-anchor="middle" x="484.09" y="-30.3" font-family="Times,serif" font-size="14.00">N</text>
</a>
</g>
</g>
<!-- sign_eval_greedy_eval&#45;&gt;sign_eval_N -->
<g id="edge8" class="edge">
<title>sign_eval_greedy_eval&#45;&gt;sign_eval_N</title>
<path fill="none" stroke="black" d="M484.09,-87.7C484.09,-79.98 484.09,-70.71 484.09,-62.11"/>
<polygon fill="black" stroke="black" points="487.59,-62.1 484.09,-52.1 480.59,-62.1 487.59,-62.1"/>
</g>
<!-- sign_eval_neg&#45;&gt;sign_eval_sign -->
<g id="edge9" class="edge">
<title>sign_eval_neg&#45;&gt;sign_eval_sign</title>
<path fill="none" stroke="black" d="M249.38,-90.5C239.61,-80.86 226.6,-68.04 215.55,-57.14"/>
<polygon fill="black" stroke="black" points="217.85,-54.5 208.27,-49.97 212.94,-59.48 217.85,-54.5"/>
</g>
<!-- sign_eval_neg&#45;&gt;sign_eval_P -->
<g id="edge10" class="edge">
<title>sign_eval_neg&#45;&gt;sign_eval_P</title>
<path fill="none" stroke="black" d="M280.08,-90.83C291.5,-80.71 307.05,-66.93 319.85,-55.59"/>
<polygon fill="black" stroke="black" points="322.23,-58.16 327.4,-48.91 317.59,-52.92 322.23,-58.16"/>
</g>
<!-- sign_eval_neg&#45;&gt;sign_eval_N -->
<g id="edge11" class="edge">
<title>sign_eval_neg&#45;&gt;sign_eval_N</title>
<path fill="none" stroke="black" d="M288.9,-97.11C328.41,-84.53 405.71,-59.94 450.26,-45.76"/>
<polygon fill="black" stroke="black" points="451.57,-49.02 460.04,-42.65 449.45,-42.35 451.57,-49.02"/>
</g>
<!-- sign_eval_value&#45;&gt;sign_eval_sign -->
<g id="edge12" class="edge">
<title>sign_eval_value&#45;&gt;sign_eval_sign</title>
<path fill="none" stroke="black" d="M120.95,-90.5C134.26,-80.25 152.28,-66.39 166.98,-55.09"/>
<polygon fill="black" stroke="black" points="169.4,-57.64 175.19,-48.77 165.13,-52.09 169.4,-57.64"/>
</g>
</g>
</svg>
